<svg xmlns="http://www.w3.org/2000/svg" viewBox="0 0 500 472.54"><defs><style>.cls-1{fill:#248b04;}</style></defs><g id="Layer_2" data-name="Layer 2"><g id="Layer_1-2" data-name="Layer 1"><path class="cls-1" d="M388.63,204.29c-2.91,3.63-5.8,7.29-8.66,10.93V390.73A27.3,27.3,0,0,1,352.7,418H81.81a27.29,27.29,0,0,1-27.27-27.27V119.84A27.28,27.28,0,0,1,81.81,92.57H337.56c10.22-12.22,19.69-23.42,29.65-34.6l8.51-9.69,4.91-5.34A81.1,81.1,0,0,0,352.7,38H81.81A81.89,81.89,0,0,0,0,119.84V390.73a81.9,81.9,0,0,0,81.81,81.81H352.7a81.91,81.91,0,0,0,81.82-81.81V148.87C420.32,165.33,405.41,183.34,388.63,204.29Z"/><path class="cls-1" d="M496.09,13.7a28,28,0,0,0-38.31-9.79A200.88,200.88,0,0,0,436.72,18.6c-3.39,2.61-6.51,5.42-9.68,8.23s-6.23,5.71-9.29,8.63c-6.17,5.79-11.71,12.1-17.43,18.27L391.8,63l-8.3,9.44C372.33,85,361.59,97.82,350.88,110.65L335,130,319.6,149.72c-20.37,26.36-40.21,53.05-59.19,80.31-9.54,13.6-18.88,27.32-28.15,41.1q-5.1,7.72-10.15,15.49a134.33,134.33,0,0,1-19.7-20.25c-12-15-21.36-33.45-29.15-53.4l-.18-.45a27.28,27.28,0,0,0-51.38,18.25,302,302,0,0,0,13.71,35.92,218.71,218.71,0,0,0,20,34.72,194.33,194.33,0,0,0,27.35,30.71,214.58,214.58,0,0,0,32.37,24.13A30.35,30.35,0,0,0,256,347.49l.55-.81c9.08-13.34,18.39-26.57,27.74-39.76s18.79-26.33,28.4-39.33c19.26-26,38.73-51.77,58.87-76.93s40.67-49.92,62-73.8l8-9,8.13-8.77c5.44-5.83,10.81-11.76,16.17-17.62s10.37-12.11,15.36-18.32a183.4,183.4,0,0,0,14.1-19.68l.63-1A28,28,0,0,0,496.09,13.7Z"/></g></g></svg>